<svg width="1678" height="500" viewBox="0 0 1678 500" fill="none" xmlns="http://www.w3.org/2000/svg">
<path d="M620.813 389.981V157.616L779.162 389.981H817.549V109.541H783.96V341.905L625.612 109.541H587.224V389.981H620.813Z" fill="white"/>
<path d="M907.158 389.981V262.18H1052.31V231.332H907.158V140.389H1064.31V109.541H873.569V389.981H907.158Z" fill="white"/>
<path d="M1221.66 389.981L1327.23 109.541H1291.64L1203.67 343.508L1112.9 109.541H1076.91L1185.67 389.981H1221.66Z" fill="white"/>
<path d="M1473.37 394.388C1546.55 394.388 1592.94 355.126 1605.33 282.212H1570.54C1559.75 335.095 1525.76 363.539 1473.37 363.539C1410.6 363.539 1371.81 320.672 1371.81 248.959C1371.81 179.651 1410.6 135.982 1473.37 135.982C1524.16 135.982 1560.15 166.029 1570.54 217.31H1605.33C1593.34 146.799 1544.55 105.134 1473.37 105.134C1387.4 105.134 1336.62 165.629 1336.62 248.959C1336.62 333.893 1387.4 394.388 1473.37 394.388Z" fill="white"/>
<path fill-rule="evenodd" clip-rule="evenodd" d="M184.518 27.1233C220.683 -9.04112 279.317 -9.04109 315.481 27.1233L472.876 184.518C509.041 220.683 509.04 279.317 472.876 315.481L315.481 472.876C279.317 509.041 220.683 509.04 184.518 472.876L27.1233 315.481C-9.04112 279.317 -9.04109 220.683 27.1233 184.518L184.518 27.1233ZM65.6418 184.518C29.4774 220.683 29.4774 279.317 65.6419 315.481L184.518 434.358C220.683 470.522 279.317 470.522 315.481 434.358L434.358 315.481C470.522 279.317 470.522 220.683 434.358 184.518L315.481 65.6418C279.317 29.4774 220.683 29.4774 184.518 65.6419L65.6418 184.518Z" fill="white"/>
<path fill-rule="evenodd" clip-rule="evenodd" d="M195.881 100.195C225.663 70.4125 273.95 70.4125 303.732 100.195L399.611 196.074C429.394 225.856 429.394 274.143 399.611 303.926L303.732 399.804C273.95 429.587 225.663 429.587 195.881 399.804L100.002 303.926C70.2194 274.143 70.2194 225.856 100.002 196.074L195.881 100.195ZM127.216 196.074C97.4335 225.856 97.4335 274.143 127.216 303.926L195.881 372.59C225.663 402.373 273.95 402.373 303.732 372.59L372.397 303.926C402.179 274.143 402.179 225.856 372.397 196.074L303.732 127.409C273.95 97.6266 225.663 97.6266 195.881 127.409L127.216 196.074Z" fill="white"/>
<path d="M1651.88 105.134C1637.36 105.134 1626.03 116.633 1626.03 130.702C1626.03 144.893 1637.36 156.27 1651.88 156.27C1666.41 156.27 1677.86 144.893 1677.86 130.702C1677.86 116.633 1666.41 105.134 1651.88 105.134ZM1651.88 150.398C1640.8 150.398 1632.31 141.957 1632.31 130.702C1632.31 119.569 1640.8 111.006 1651.88 111.006C1663.09 111.006 1671.58 119.569 1671.58 130.702C1671.58 141.957 1663.09 150.398 1651.88 150.398ZM1648.81 134.617H1651.27L1656.93 142.568H1663.7L1657.55 134.127C1661.36 132.904 1663.46 130.09 1663.46 126.42C1663.46 121.771 1660.01 118.591 1653.73 118.591H1642.4V142.568H1648.81V134.617ZM1648.81 129.601V123.606H1653.48C1655.95 123.606 1657.05 124.463 1657.05 126.542C1657.05 128.744 1655.95 129.601 1653.48 129.601H1648.81Z" fill="white"/>
</svg>
